<?xml version="1.0" encoding="utf-8"?>
<!-- Generator: Adobe Illustrator 16.0.3, SVG Export Plug-In . SVG Version: 6.00 Build 0)  -->
<!DOCTYPE svg PUBLIC "-//W3C//DTD SVG 1.1//EN" "http://www.w3.org/Graphics/SVG/1.1/DTD/svg11.dtd">
<svg version="1.1" id="Camada_1" xmlns="http://www.w3.org/2000/svg" xmlns:xlink="http://www.w3.org/1999/xlink" x="0px" y="0px"
	 width="595.275px" height="841.89px" viewBox="0 0 595.275 841.89" enable-background="new 0 0 595.275 841.89"
	 xml:space="preserve">
<g>
	
		<path fill-rule="evenodd" clip-rule="evenodd" fill="#F6B800" stroke="#F6B800" stroke-width="0.216" stroke-miterlimit="22.9256" d="
		M170.341,260.133c3.791-33.177,18.852-62.933,41.26-85.34c22.408-22.408,52.163-37.469,85.34-41.259v18.197
		c-28.186,3.693-53.441,16.7-72.572,35.831c-19.131,19.13-32.137,44.386-35.83,72.572H170.341z"/>
	<path fill-rule="evenodd" clip-rule="evenodd" fill="#3374BB" d="M296.941,419.795c-33.177-3.791-62.932-18.852-85.34-41.259
		c-22.408-22.408-37.469-52.163-41.26-85.341h18.197c3.693,28.187,16.699,53.442,35.83,72.573s44.386,32.137,72.572,35.83V419.795z"
		/>
	<path fill-rule="evenodd" clip-rule="evenodd" fill="#65727E" d="M456.603,293.195c-3.79,33.178-18.851,62.933-41.259,85.341
		c-22.408,22.408-52.164,37.469-85.342,41.259v-18.197c28.187-3.693,53.442-16.699,72.573-35.83s32.137-44.386,35.83-72.573H456.603
		z"/>
	<path fill-rule="evenodd" clip-rule="evenodd" fill="#6D9ACF" d="M330.002,133.534c33.178,3.79,62.934,18.851,85.342,41.259
		c22.408,22.408,37.469,52.163,41.259,85.34h-18.197c-3.692-28.186-16.699-53.442-35.83-72.572
		c-19.131-19.131-44.387-32.137-72.573-35.831V133.534z"/>
</g>
<path fill-rule="evenodd" clip-rule="evenodd" d="M364.189,277.749c0-7.603-1.191-14.298-3.574-20.086
	c-2.384-5.787-5.447-10.667-9.192-14.639c-4.652-4.879-9.9-8.568-15.745-11.064c-5.844-2.496-12-3.745-18.469-3.745
	c-7.489,0-14.156,1.106-20,3.319s-10.922,5.249-15.234,9.106c-4.766,4.199-8.454,9.22-11.064,15.064
	c-2.61,5.844-3.915,12.511-3.915,20.001c0,8.284,1.248,15.433,3.745,21.447s5.844,11.064,10.042,15.149
	c4.88,4.653,10.525,8.029,16.937,10.128c6.412,2.1,12.909,3.149,19.49,3.149c15.162,0,30.999-2.814,46.129-8.851l-0.34-5.447
	c-17.22,7.25-35.93,8.681-46.129,8.681c-4.767,0-9.703-0.709-14.81-2.128c-5.106-1.418-9.787-3.801-14.043-7.149
	c-4.255-3.348-7.773-7.716-10.553-13.106c-2.78-5.391-4.227-12-4.341-19.831H364.189L364.189,277.749z M357.721,271.961h-84.598
	c0.114-5.22,1.277-10.128,3.49-14.724c2.213-4.596,5.248-8.625,9.106-12.085c3.858-3.461,8.454-6.213,13.788-8.256
	c5.333-2.042,11.234-3.063,17.702-3.063c5.787,0,11.093,1.049,15.916,3.149c4.822,2.099,8.993,4.936,12.511,8.511
	s6.326,7.66,8.426,12.256C356.161,262.344,357.381,267.082,357.721,271.961z"/>
<path fill-rule="evenodd" clip-rule="evenodd" d="M199.231,453.127h-9.702l-28.086,60.258c-4.085,8.965-8.114,17.759-12.085,26.384
	c-3.972,8.624-8,17.532-12.085,26.724c-3.972-9.078-7.972-17.986-12-26.724c-4.028-8.738-8.085-17.533-12.17-26.384l-28.086-60.258
	h-9.702l58.555,126.132h6.809L199.231,453.127L199.231,453.127z M304.472,579.259h-10.043l-18.894-42.044h-60.087l-18.724,42.044
	h-9.873l55.832-126.132h5.787L304.472,579.259L304.472,579.259z M271.79,528.534l-13.447-31.15
	c-2.042-4.88-4.142-9.759-6.298-14.639s-4.312-9.93-6.468-15.149c-2.156,5.106-4.255,10.043-6.298,14.809
	c-2.042,4.767-4.085,9.532-6.128,14.299l-13.788,31.831H271.79L271.79,528.534z M431.5,579.259v-8.681h-80.344V453.127h-9.191
	v126.132H431.5L431.5,579.259z M546.102,579.259v-8.681h-77.789v-52.768h61.278v-8.682h-61.278v-47.32h75.406v-8.682H459.12v126.132
	H546.102z"/>
</svg>
