<?xml version="1.0" encoding="utf-8"?>
<!-- Generator: Adobe Illustrator 16.0.3, SVG Export Plug-In . SVG Version: 6.00 Build 0)  -->
<!DOCTYPE svg PUBLIC "-//W3C//DTD SVG 1.1//EN" "http://www.w3.org/Graphics/SVG/1.1/DTD/svg11.dtd">
<svg version="1.1" id="Camada_1" xmlns="http://www.w3.org/2000/svg" xmlns:xlink="http://www.w3.org/1999/xlink" x="0px" y="0px"
	 width="595.275px" height="841.891px" viewBox="0 0 595.275 841.891" enable-background="new 0 0 595.275 841.891"
	 xml:space="preserve">
<g>
	<path fill="#F6B800" stroke="#F6B800" stroke-width="0.216" stroke-miterlimit="22.9256" d="M50.507,377.764
		c6.745-58.559,33.538-111.078,73.402-150.628c39.863-39.549,92.798-66.134,151.819-72.823v32.119
		c-50.143,6.517-95.071,29.477-129.105,63.243c-34.035,33.765-57.172,78.343-63.742,128.093H50.507V377.764z"/>
	<path fill="#3374BB" d="M275.729,659.574c-59.021-6.691-111.956-33.275-151.819-72.826
		c-39.864-39.549-66.658-92.068-73.402-150.629H82.88c6.569,49.752,29.708,94.33,63.742,128.094
		c34.034,33.768,78.962,56.725,129.105,63.242L275.729,659.574L275.729,659.574z"/>
	<path fill="#65727E" d="M559.77,436.119c-6.744,58.561-33.537,111.08-73.401,150.629c-39.862,39.553-92.799,66.137-151.823,72.826
		v-32.119c50.145-6.518,95.074-29.475,129.108-63.242c34.033-33.764,57.172-78.342,63.741-128.094H559.77z"/>
	<path fill="#6D9ACF" d="M334.545,154.313c59.024,6.689,111.961,33.274,151.823,72.823c39.864,39.551,66.657,92.069,73.401,150.628
		h-32.372c-6.57-49.749-29.709-94.326-63.743-128.091c-34.033-33.767-78.965-56.724-129.108-63.243L334.545,154.313L334.545,154.313
		z"/>
</g>
<path d="M395.362,408.857c0-13.419-2.117-25.236-6.356-35.453c-4.24-10.214-9.69-18.827-16.353-25.837
	c-8.277-8.612-17.613-15.124-28.012-19.529c-10.396-4.406-21.348-6.61-32.855-6.61c-13.324,0-25.184,1.953-35.58,5.859
	c-10.396,3.905-19.43,9.264-27.102,16.073c-8.479,7.41-15.04,16.273-19.683,26.587c-4.644,10.315-6.965,22.083-6.965,35.303
	c0,14.623,2.221,27.241,6.663,37.854c4.442,10.615,10.396,19.529,17.865,26.74c8.681,8.213,18.723,14.17,30.129,17.875
	c11.408,3.707,22.966,5.559,34.674,5.559c26.974,0,55.146-4.967,82.063-15.623l-0.604-9.615
	c-30.637,12.799-63.92,15.324-82.064,15.324c-8.481,0-17.262-1.25-26.348-3.758c-9.082-2.502-17.41-6.707-24.981-12.617
	c-7.57-5.906-13.828-13.617-18.774-23.133c-4.945-9.514-7.52-21.18-7.722-35.001h162.005V408.857z M383.858,398.641H233.357
	c0.204-9.213,2.271-17.876,6.209-25.988c3.937-8.112,9.335-15.223,16.198-21.331c6.864-6.108,15.04-10.966,24.529-14.571
	c9.487-3.604,19.985-5.408,31.492-5.408c10.295,0,19.734,1.852,28.314,5.559c8.578,3.705,15.999,8.712,22.257,15.022
	c6.258,6.311,11.254,13.521,14.989,21.632C381.081,381.668,383.252,390.029,383.858,398.641z"/>
</svg>
